# xmcd CD database file generated by LOLA_Freedb v0.9beta0
# 
# Track frame offsets:
#      150
#      23188
#      40611
#      62213
#      80578
#      99702
#      117418
#      137540
#      155850
#      174968
#      192545
#      214268
#      235046
#      258431
#      276544
#      299880
# 
# Disc length: 4266 seconds
# 
# Revision: 1 
# Processed by: cddbd v1.5.2PL0 Copyright (c) Steve Scherf et al.
# Submitted via: LOLA_Freedb v0.9beta0
# 
DISCID=f910a810
DTITLE=Mystic Spirit Voices - Lesiem
DYEAR=1900
DGENRE=New Age
TTITLE0=Mystic Spirit Voices - Lesiem
TTITLE1=Mystic Spirit Voices - Occultum
TTITLE2=Mystic Spirit Voices - Fundamentum
TTITLE3=Mystic Spirit Voices - Vivere
TTITLE4=Mystic Spirit Voices - Open your eyes
TTITLE5=Mystic Spirit Voices - Indalo
TTITLE6=Mystic Spirit Voices - Liberta
TTITLE7=Mystic Spirit Voices - Miracle Eyes
TTITLE8=Mystic Spirit Voices - Una Terra
TTITLE9=Mystic Spirit Voices - Mater Gloria
TTITLE10=Mystic Spirit Voices - Veni Creator Spiritus
TTITLE11=Mystic Spirit Voices - Lacrimosa
TTITLE12=Mystic Spirit Voices - Floreat
TTITLE13=Mystic Spirit Voices - In Taberna Mori
TTITLE14=Mystic Spirit Voices - Ave Fortuna
TTITLE15=Mystic Spirit Voices - Liberta (Chior version)
EXTD=
EXTT0=
EXTT1=
EXTT2=
EXTT3=
EXTT4=
EXTT5=
EXTT6=
EXTT7=
EXTT8=
EXTT9=
EXTT10=
EXTT11=
EXTT12=
EXTT13=
EXTT14=
EXTT15=
PLAYORDER=
